<?xml version="1.0" standalone="no"?>
<!DOCTYPE svg PUBLIC "-//W3C//DTD SVG 20010904//EN"
 "http://www.w3.org/TR/2001/REC-SVG-20010904/DTD/svg10.dtd">
<svg version="1.0" xmlns="http://www.w3.org/2000/svg"
 width="1258.000000pt" height="290.000000pt" viewBox="0 0 1258.000000 290.000000"
 preserveAspectRatio="xMidYMid meet">

<g transform="translate(0.000000,290.000000) scale(0.100000,-0.100000)"
fill="#000000" stroke="none">
<path d="M5350 2030 l0 -520 270 0 270 0 0 50 0 50 -150 0 -150 0 0 50 0 50
-60 0 -60 0 0 150 0 150 195 0 195 0 0 45 0 45 -135 0 -135 0 0 50 0 50 -60 0
-60 0 0 130 0 130 210 0 210 0 0 45 0 45 -270 0 -270 0 0 -520z"/>
<path d="M2155 841 c-113 -29 -170 -110 -169 -241 1 -168 117 -255 290 -219
l69 14 3 108 3 107 -81 0 c-64 0 -80 -3 -80 -15 0 -12 14 -15 65 -15 l65 0 0
-85 0 -84 -35 -7 c-20 -3 -64 -4 -99 -2 -106 7 -161 64 -173 182 -3 28 0 70 6
94 15 54 71 117 118 133 35 11 136 8 181 -6 31 -10 29 13 -4 25 -37 14 -124
20 -159 11z"/>
<path d="M3212 830 c-56 -25 -80 -75 -62 -132 13 -44 43 -66 132 -99 72 -27
102 -58 102 -106 0 -28 -7 -42 -34 -66 -33 -29 -34 -30 -122 -25 -63 4 -88 2
-85 -6 2 -6 27 -15 57 -19 126 -21 210 27 210 118 0 60 -31 92 -119 126 -120
46 -154 108 -91 171 29 29 34 30 98 26 37 -3 73 -7 81 -9 7 -2 15 1 18 8 2 7
-16 15 -47 22 -69 15 -88 14 -138 -9z"/>
<path d="M3627 835 c-85 -30 -130 -106 -131 -220 0 -45 6 -87 17 -117 49 -128
209 -167 311 -77 48 41 68 99 68 189 0 90 -20 148 -68 189 -55 49 -126 62
-197 36z m149 -31 c21 -10 45 -34 61 -62 23 -39 27 -57 27 -126 1 -142 -57
-216 -169 -216 -67 0 -114 26 -145 81 -21 37 -25 57 -25 129 0 72 4 92 25 129
14 25 40 52 60 63 43 23 120 24 166 2z"/>
<path d="M5747 835 c-85 -30 -130 -106 -131 -220 0 -45 6 -87 17 -117 49 -128
209 -167 311 -77 48 41 68 99 68 189 0 90 -20 148 -68 189 -55 49 -126 62
-197 36z m149 -31 c21 -10 45 -34 61 -62 23 -39 27 -57 27 -126 1 -142 -57
-216 -169 -216 -67 0 -114 26 -145 81 -21 37 -25 57 -25 129 0 72 4 92 25 129
14 25 40 52 60 63 43 23 120 24 166 2z"/>
<path d="M7119 836 c-97 -34 -142 -104 -143 -220 -1 -124 51 -210 141 -235 61
-17 162 -8 170 15 3 8 -17 10 -66 6 -87 -6 -112 0 -156 39 -91 80 -81 280 17
351 27 19 46 23 103 23 39 0 80 -4 93 -8 16 -6 22 -5 22 6 0 9 -17 19 -44 26
-57 14 -92 13 -137 -3z"/>
<path d="M8349 836 c-97 -34 -142 -104 -143 -220 -1 -124 51 -210 141 -235 61
-17 162 -8 170 15 3 8 -17 10 -66 6 -87 -6 -112 0 -156 39 -91 80 -81 280 17
351 27 19 46 23 103 23 39 0 80 -4 93 -8 16 -6 22 -5 22 6 0 9 -17 19 -44 26
-57 14 -92 13 -137 -3z"/>
<path d="M10547 835 c-85 -30 -130 -106 -131 -220 -1 -87 23 -153 69 -194 33
-29 89 -51 130 -51 74 0 152 53 180 123 23 56 23 178 0 234 -39 98 -147 145
-248 108z m149 -31 c21 -10 45 -34 61 -62 23 -39 27 -57 27 -126 1 -142 -57
-216 -169 -216 -67 0 -114 26 -145 81 -21 37 -25 57 -25 129 0 72 4 92 25 129
14 25 40 52 60 63 43 23 120 24 166 2z"/>
<path d="M11487 835 c-85 -30 -130 -106 -131 -220 -1 -87 23 -153 69 -194 33
-29 89 -51 130 -51 74 0 152 53 180 123 23 56 23 178 0 234 -39 98 -147 145
-248 108z m149 -31 c21 -10 45 -34 61 -62 23 -39 27 -57 27 -126 1 -142 -57
-216 -169 -216 -67 0 -114 26 -145 81 -21 37 -25 57 -25 129 0 72 4 92 25 129
14 25 40 52 60 63 43 23 120 24 166 2z"/>
<path d="M11902 830 c-56 -25 -80 -75 -62 -132 13 -44 43 -66 132 -99 72 -27
102 -58 102 -106 0 -28 -7 -42 -34 -66 -33 -29 -34 -30 -122 -25 -63 4 -88 2
-85 -6 2 -6 27 -15 57 -19 126 -21 210 27 210 118 0 60 -31 92 -119 126 -120
46 -154 108 -91 171 29 29 34 30 98 26 37 -3 73 -7 81 -9 7 -2 15 1 18 8 2 7
-16 15 -47 22 -69 15 -88 14 -138 -9z"/>
<path d="M470 610 l0 -230 120 0 c100 0 120 3 120 15 0 12 -19 15 -110 15
l-110 0 0 100 0 100 105 0 c87 0 105 3 105 15 0 12 -18 15 -105 15 l-105 0 0
85 0 85 110 0 c91 0 110 3 110 15 0 13 -20 15 -120 15 l-120 0 0 -230z"/>
<path d="M820 610 c0 -143 4 -230 10 -230 6 0 11 80 12 207 l3 207 135 -206
c74 -114 141 -207 148 -207 9 -1 12 51 12 229 0 143 -4 230 -10 230 -6 0 -11
-80 -12 -206 l-3 -206 -135 206 c-74 113 -141 206 -147 206 -10 0 -13 -53 -13
-230z"/>
<path d="M1280 610 l0 -230 120 0 c100 0 120 3 120 15 0 12 -19 15 -110 15
l-110 0 0 100 0 100 105 0 c87 0 105 3 105 15 0 12 -18 15 -105 15 l-105 0 0
85 0 85 110 0 c91 0 110 3 110 15 0 13 -20 15 -120 15 l-120 0 0 -230z"/>
<path d="M1630 611 c0 -147 4 -231 10 -231 6 0 10 40 10 100 l0 100 63 0 62 0
58 -100 c34 -59 64 -100 73 -100 17 0 11 11 -73 150 -30 49 -32 56 -17 65 72
44 94 94 72 159 -19 59 -61 79 -170 84 l-88 4 0 -231z m209 175 c27 -25 37
-78 21 -117 -18 -43 -57 -59 -140 -59 l-70 0 0 101 0 101 84 -3 c65 -3 89 -8
105 -23z"/>
<path d="M2470 610 c0 -147 4 -230 10 -230 6 0 10 83 10 230 0 147 -4 230 -10
230 -6 0 -10 -83 -10 -230z"/>
<path d="M2656 614 c-48 -124 -86 -228 -83 -231 12 -11 25 9 53 82 l29 75 96
0 97 0 32 -80 c18 -46 38 -80 46 -80 16 0 16 -2 -95 280 -37 96 -72 175 -77
177 -5 1 -49 -99 -98 -223z m143 58 l39 -102 -85 0 c-77 0 -85 2 -79 18 36 96
81 202 83 195 2 -4 21 -54 42 -111z"/>
<path d="M4010 610 l0 -230 120 0 c100 0 120 3 120 15 0 12 -19 15 -110 15
l-110 0 0 215 c0 137 -4 215 -10 215 -6 0 -10 -83 -10 -230z"/>
<path d="M4356 614 c-48 -124 -86 -228 -83 -231 12 -11 25 9 53 82 l29 75 96
0 97 0 32 -80 c18 -46 38 -80 46 -80 16 0 16 -2 -95 280 -37 96 -72 175 -77
177 -5 1 -49 -99 -98 -223z m143 58 l39 -102 -85 0 c-77 0 -85 2 -79 18 36 96
81 202 83 195 2 -4 21 -54 42 -111z"/>
<path d="M4720 611 c0 -147 4 -231 10 -231 6 0 10 40 10 100 l0 100 63 0 62 0
58 -100 c34 -59 64 -100 73 -100 17 0 11 11 -73 150 -30 49 -32 56 -17 65 72
44 94 94 72 159 -19 59 -61 79 -170 84 l-88 4 0 -231z m209 175 c27 -25 37
-78 21 -117 -18 -43 -57 -59 -140 -59 l-70 0 0 101 0 101 84 -3 c65 -3 89 -8
105 -23z"/>
<path d="M5286 614 c-48 -124 -86 -228 -83 -231 12 -11 25 9 53 82 l29 75 96
0 97 0 32 -80 c18 -46 38 -80 46 -80 16 0 16 -2 -95 280 -37 96 -72 175 -77
177 -5 1 -49 -99 -98 -223z m143 58 l39 -102 -85 0 c-77 0 -85 2 -79 18 36 96
81 202 83 195 2 -4 21 -54 42 -111z"/>
<path d="M6316 614 c-48 -124 -86 -228 -83 -231 12 -11 25 9 53 82 l29 75 96
0 97 0 32 -80 c18 -46 38 -80 46 -80 16 0 16 -2 -95 280 -37 96 -72 175 -77
177 -5 1 -49 -99 -98 -223z m143 58 l39 -102 -85 0 c-77 0 -85 2 -79 18 36 96
81 202 83 195 2 -4 21 -54 42 -111z"/>
<path d="M6670 610 l0 -230 120 0 c100 0 120 3 120 15 0 12 -19 15 -110 15
l-110 0 0 215 c0 137 -4 215 -10 215 -6 0 -10 -83 -10 -230z"/>
<path d="M7416 614 c-48 -124 -86 -228 -83 -231 12 -11 25 9 53 82 l29 75 96
0 97 0 32 -80 c18 -46 38 -80 46 -80 16 0 16 -2 -95 280 -37 96 -72 175 -77
177 -5 1 -49 -99 -98 -223z m143 58 l39 -102 -85 0 c-77 0 -85 2 -79 18 36 96
81 202 83 195 2 -4 21 -54 42 -111z"/>
<path d="M7780 610 c0 -143 4 -230 10 -230 6 0 11 80 12 207 l3 207 135 -206
c74 -114 141 -207 148 -207 9 -1 12 51 12 229 0 143 -4 230 -10 230 -6 0 -11
-80 -12 -206 l-3 -206 -135 206 c-74 113 -141 206 -147 206 -10 0 -13 -53 -13
-230z"/>
<path d="M8630 610 l0 -230 120 0 c100 0 120 3 120 15 0 12 -19 15 -110 15
l-110 0 0 100 0 100 105 0 c87 0 105 3 105 15 0 12 -18 15 -105 15 l-105 0 0
85 0 85 110 0 c91 0 110 3 110 15 0 13 -20 15 -120 15 l-120 0 0 -230z"/>
<path d="M9140 610 l0 -233 93 5 c146 8 215 55 237 164 24 116 -11 220 -89
263 -36 20 -63 25 -143 29 l-98 5 0 -233z m216 181 c56 -25 85 -75 91 -155 6
-73 -7 -123 -45 -168 -36 -43 -79 -58 -167 -58 l-75 0 0 200 0 200 78 0 c53 0
90 -6 118 -19z"/>
<path d="M9590 610 l0 -230 120 0 c100 0 120 3 120 15 0 12 -19 15 -110 15
l-110 0 0 100 0 100 105 0 c87 0 105 3 105 15 0 12 -18 15 -105 15 l-105 0 0
85 0 85 110 0 c91 0 110 3 110 15 0 13 -20 15 -120 15 l-120 0 0 -230z"/>
<path d="M10050 825 c0 -12 14 -15 70 -15 l70 0 0 -215 c0 -184 2 -215 15
-215 13 0 15 31 15 215 l0 215 75 0 c60 0 75 3 75 15 0 13 -24 15 -160 15
-136 0 -160 -2 -160 -15z"/>
<path d="M10930 610 l0 -233 93 5 c146 8 215 55 237 164 24 116 -11 220 -89
263 -36 20 -63 25 -143 29 l-98 5 0 -233z m216 181 c56 -25 85 -75 91 -155 6
-73 -7 -123 -45 -168 -36 -43 -79 -58 -167 -58 l-75 0 0 200 0 200 78 0 c53 0
90 -6 118 -19z"/>
</g>
</svg>
