<?xml version="1.0" standalone="no"?><!-- Generator: Gravit.io --><svg xmlns="http://www.w3.org/2000/svg" xmlns:xlink="http://www.w3.org/1999/xlink" style="isolation:isolate" viewBox="0 0 200 200" width="200" height="200"><defs><clipPath id="_clipPath_4eGj3K6W5AuRFEo3uMSlwg7Xd3yGqmSG"><rect width="200" height="200"/></clipPath></defs><g clip-path="url(#_clipPath_4eGj3K6W5AuRFEo3uMSlwg7Xd3yGqmSG)"><g id="Group"><path d="M 100 48.889 L 100 48.889 C 124.499 48.889 144.389 68.779 144.389 93.278 L 144.389 155.611 C 144.389 180.11 124.499 200 100 200 L 100 200 C 75.501 200 55.611 180.11 55.611 155.611 L 55.611 93.278 C 55.611 68.779 75.501 48.889 100 48.889 Z" style="stroke:none;fill:#06A2E5;stroke-miterlimit:10;"/><path d="M 100 62.553 L 100 62.553 C 120.068 62.553 136.361 78.846 136.361 98.914 L 136.361 149.975 C 136.361 170.043 120.068 186.336 100 186.336 L 100 186.336 C 79.932 186.336 63.639 170.043 63.639 149.975 L 63.639 98.914 C 63.639 78.846 79.932 62.553 100 62.553 Z" style="stroke:none;fill:#025E84;stroke-miterlimit:10;"/><path d="M 98.216 6.75 L 101.784 6.75 C 138.329 6.75 168 36.42 168 72.966 L 168 74.304 C 168 110.85 138.329 140.52 101.784 140.52 L 98.216 140.52 C 61.671 140.52 32 110.85 32 74.304 L 32 72.966 C 32 36.42 61.671 6.75 98.216 6.75 Z" style="stroke:none;fill:#06A2E5;stroke-miterlimit:10;"/><path d="M 100 107.444 L 100 107.444 C 109.643 107.444 117.472 115.273 117.472 124.917 L 117.472 149.452 C 117.472 159.095 109.643 166.924 100 166.924 L 100 166.924 C 90.357 166.924 82.528 159.095 82.528 149.452 L 82.528 124.917 C 82.528 115.273 90.357 107.444 100 107.444 Z" style="stroke:none;fill:#0B8BC1;stroke-miterlimit:10;"/><path d="M 100 96.158 L 100 96.158 C 109.643 96.158 117.472 103.987 117.472 113.63 L 117.472 138.166 C 117.472 147.809 109.643 155.638 100 155.638 L 100 155.638 C 90.357 155.638 82.528 147.809 82.528 138.166 L 82.528 113.63 C 82.528 103.987 90.357 96.158 100 96.158 Z" style="stroke:none;fill:#06A2E5;stroke-miterlimit:10;"/><path d="M 95.986 109.38 L 95.986 109.38 C 98.201 109.38 100 111.179 100 113.394 L 100 127.986 C 100 130.201 98.201 132 95.986 132 L 95.986 132 C 93.771 132 91.972 130.201 91.972 127.986 L 91.972 113.394 C 91.972 111.179 93.771 109.38 95.986 109.38 Z" style="stroke:none;fill:#025E84;stroke-miterlimit:10;"/><path d="M 105.903 109.38 L 105.903 109.38 C 108.118 109.38 109.917 111.179 109.917 113.394 L 109.917 127.986 C 109.917 130.201 108.118 132 105.903 132 L 105.903 132 C 103.687 132 101.889 130.201 101.889 127.986 L 101.889 113.394 C 101.889 111.179 103.687 109.38 105.903 109.38 Z" style="stroke:none;fill:#025E84;stroke-miterlimit:10;"/><path d="M 100 160.333 L 100 160.333 C 109.643 160.333 117.472 168.162 117.472 177.806 L 117.472 182.528 C 117.472 192.171 109.643 200 100 200 L 100 200 C 90.357 200 82.528 192.171 82.528 182.528 L 82.528 177.806 C 82.528 168.162 90.357 160.333 100 160.333 Z" style="stroke:none;fill:#06A2E5;stroke-miterlimit:10;"/><path d=" M 49 73.635 C 49 62.689 57.887 53.802 68.833 53.802 C 79.78 53.802 88.667 62.689 88.667 73.635 C 88.667 84.581 79.78 93.468 68.833 93.468 C 57.887 93.468 49 84.581 49 73.635 Z " fill="rgb(235,235,235)"/><path d=" M 111.333 73.635 C 111.333 62.689 120.22 53.802 131.167 53.802 C 142.113 53.802 151 62.689 151 73.635 C 151 84.581 142.113 93.468 131.167 93.468 C 120.22 93.468 111.333 84.581 111.333 73.635 Z " fill="rgb(235,235,235)"/><path d=" M 126.254 73.635 C 126.254 70.923 128.455 68.722 131.167 68.722 C 133.878 68.722 136.079 70.923 136.079 73.635 C 136.079 76.346 133.878 78.547 131.167 78.547 C 128.455 78.547 126.254 76.346 126.254 73.635 Z " fill="rgb(172,28,45)"/><path d=" M 63.921 73.635 C 63.921 70.923 66.122 68.722 68.833 68.722 C 71.545 68.722 73.746 70.923 73.746 73.635 C 73.746 76.346 71.545 78.547 68.833 78.547 C 66.122 78.547 63.921 76.346 63.921 73.635 Z " fill="rgb(172,28,45)"/><g id="Group"><rect x="73.065" y="148.771" width="2.517" height="30.477" transform="matrix(1,-0.027,0.027,1,-4.445,2.088)" fill="rgb(4,159,225)"/><path d="M 73.451 132.001 L 73.451 132.001 C 75.534 131.945 77.271 133.59 77.328 135.673 L 77.786 152.448 C 77.842 154.531 76.197 156.268 74.114 156.325 L 74.114 156.325 C 72.031 156.382 70.294 154.737 70.237 152.653 L 69.779 135.879 C 69.722 133.796 71.367 132.058 73.451 132.001 Z" style="stroke:none;fill:#049FE1;stroke-miterlimit:10;"/></g><g id="Group"><rect x="124.871" y="148.771" width="2.517" height="30.477" transform="matrix(1,0.027,-0.027,1,4.52,-3.379)" fill="rgb(4,159,225)"/><path d="M 127.003 132.001 L 127.003 132.001 C 124.92 131.945 123.183 133.59 123.126 135.673 L 122.668 152.448 C 122.611 154.531 124.256 156.268 126.339 156.325 L 126.339 156.325 C 128.423 156.382 130.16 154.737 130.217 152.653 L 130.674 135.879 C 130.731 133.796 129.086 132.058 127.003 132.001 Z" style="stroke:none;fill:#049FE1;stroke-miterlimit:10;"/></g></g></g></svg>